<svg width="18" height="18" viewBox="0 0 18 18" fill="none" xmlns="http://www.w3.org/2000/svg">
<g opacity="0.65">
<path d="M9.00781 12.8705C11.0789 12.8705 12.7578 11.1915 12.7578 9.12048C12.7578 7.04943 11.0789 5.37048 9.00781 5.37048C6.93676 5.37048 5.25781 7.04943 5.25781 9.12048C5.25781 11.1915 6.93676 12.8705 9.00781 12.8705Z" stroke="white" stroke-width="1.47273" stroke-linejoin="round"/>
<path d="M14.1005 3.88953L13.2617 4.73308" stroke="white" stroke-width="1.47273" stroke-linecap="round"/>
<path d="M4.59233 13.3448L3.89453 14.0466" stroke="white" stroke-width="1.47273" stroke-linecap="round"/>
<path d="M9 14.9159V15.9386" stroke="white" stroke-width="1.47273" stroke-linecap="round"/>
<path d="M15.8168 8.77942H14.4531" stroke="white" stroke-width="1.47273" stroke-linecap="round"/>
<path d="M13.6133 13.2056L14.4544 14.0467" stroke="white" stroke-width="1.47273" stroke-linecap="round"/>
<path fill-rule="evenodd" clip-rule="evenodd" d="M9.00746 6.73401C7.6895 6.73401 6.62109 7.80242 6.62109 9.12037C6.62109 10.4383 7.6895 11.5067 9.00746 11.5067" fill="white"/>
<path d="M2.18359 9.12061H3.54723" stroke="white" stroke-width="1.47273" stroke-linecap="round"/>
<path d="M4.24219 3.88953L4.94201 4.58933" stroke="white" stroke-width="1.47273" stroke-linecap="round"/>
<path d="M9 1.96155V3.32518" stroke="white" stroke-width="1.47273" stroke-linecap="round"/>
</g>
</svg>
