<svg width="18" height="18" viewBox="0 0 18 18" fill="none" xmlns="http://www.w3.org/2000/svg">
<g opacity="0.65">
<path fill-rule="evenodd" clip-rule="evenodd" d="M9.36204 10.8981V3.15788C9.36204 2.13822 8.53105 1.30884 7.51186 1.30884H7.44757C6.42826 1.30884 5.59739 2.13834 5.59739 3.15903V10.8969C4.78663 11.4816 4.25781 12.434 4.25781 13.5108C4.25781 13.9338 4.34112 14.3526 4.50298 14.7433C4.66484 15.1341 4.90207 15.4892 5.20115 15.7882C5.50022 16.0873 5.85528 16.3245 6.24604 16.4864C6.6368 16.6483 7.05561 16.7316 7.47857 16.7316C7.90152 16.7316 8.32034 16.6483 8.7111 16.4864C9.10186 16.3245 9.45691 16.0873 9.75598 15.7882C10.0551 15.4892 10.2923 15.1341 10.4542 14.7433C10.616 14.3526 10.6993 13.9338 10.6993 13.5108C10.6993 12.4352 10.1717 11.4829 9.36204 10.8981ZM7.48116 2.94536C7.14226 2.94536 6.86752 3.2201 6.86752 3.559V9.08173H8.0948V3.559C8.0948 3.2201 7.82006 2.94536 7.48116 2.94536Z" fill="white"/>
<path d="M11.5781 4.12366L13.7599 4.12366" stroke="white" stroke-width="1.47273" stroke-linecap="round" stroke-linejoin="round"/>
<path d="M11.5781 6.98718L13.7599 6.98718" stroke="white" stroke-width="1.47273" stroke-linecap="round" stroke-linejoin="round"/>
<path d="M11.5781 9.85083L13.7599 9.85083" stroke="white" stroke-width="1.47273" stroke-linecap="round" stroke-linejoin="round"/>
</g>
</svg>
