<svg width="18" height="18" viewBox="0 0 18 18" fill="none" xmlns="http://www.w3.org/2000/svg">
<g opacity="0.65">
<path d="M6.95348 9.27278V7.50029C6.95348 6.37061 7.86926 5.45483 8.99893 5.45483C10.1286 5.45483 11.0444 6.37061 11.0444 7.50029V9.27278C11.8724 9.89473 12.408 10.885 12.408 12.0003C12.408 13.8831 10.8817 15.4094 8.99893 15.4094C7.11616 15.4094 5.58984 13.8831 5.58984 12.0003C5.58984 10.885 6.12545 9.89473 6.95348 9.27278Z" stroke="white" stroke-width="1.39091" stroke-linejoin="round"/>
<path d="M9.00071 13.2275C9.6785 13.2275 10.228 12.678 10.228 12.0002C10.228 11.3224 9.6785 10.7729 9.00071 10.7729C8.32292 10.7729 7.77344 11.3224 7.77344 12.0002C7.77344 12.678 8.32292 13.2275 9.00071 13.2275Z" stroke="white" stroke-width="1.22727" stroke-linejoin="round"/>
<path d="M7.07422 8.01013L8.43786 8.01013" stroke="white" stroke-width="1.14545" stroke-linecap="round" stroke-linejoin="round"/>
<path d="M13.5184 3.97351L12.6797 4.81707" stroke="white" stroke-width="1.47273" stroke-linecap="round"/>
<path d="M4.48047 3.97351L5.18029 4.67332" stroke="white" stroke-width="1.47273" stroke-linecap="round"/>
<path d="M8.82812 2.04553V3.40917" stroke="white" stroke-width="1.47273" stroke-linecap="round"/>
</g>
</svg>
