<svg width="18" height="18" viewBox="0 0 18 18" fill="none" xmlns="http://www.w3.org/2000/svg">
<g opacity="0.65">
<path d="M8.45042 10.4601C8.80402 10.7863 9.26599 10.9699 9.74706 10.9754C9.79277 10.9792 9.83875 10.973 9.88181 10.9572C9.92487 10.9414 9.96398 10.9164 9.99641 10.884L15.4074 5.70575C15.6059 5.50984 15.7617 5.27492 15.865 5.01582C15.9683 4.75671 16.0167 4.47902 16.0074 4.20025C15.998 3.92148 15.931 3.64768 15.8106 3.39609C15.6901 3.1445 15.5189 2.92058 15.3077 2.73844C15.1029 2.56182 14.8647 2.4283 14.6072 2.34584C14.3497 2.26338 14.0783 2.23367 13.809 2.2585C13.5398 2.28333 13.2783 2.36218 13.0403 2.49034C12.8022 2.6185 12.5924 2.79334 12.4235 3.00441L7.96833 9.10529C7.94087 9.14324 7.92153 9.18645 7.91152 9.23221C7.90151 9.27798 7.90104 9.32531 7.91015 9.37126C7.97364 9.78124 8.16235 10.1616 8.45042 10.4601ZM2.18331 13.3776C2.36535 13.4273 2.55822 13.4206 2.73635 13.3583C2.91448 13.2959 3.06945 13.1809 3.18073 13.0285C3.54645 12.4965 3.6545 11.3661 4.44412 10.6679C4.73459 10.3991 5.07917 10.1955 5.45476 10.0708C5.83035 9.9461 6.22826 9.90313 6.62182 9.94478C6.66781 9.95057 6.71088 9.97046 6.74511 10.0017C6.77934 10.033 6.80305 10.0741 6.81299 10.1193C6.88822 10.6651 7.16014 11.1646 7.57768 11.524C8.06108 11.8311 8.59615 12.0479 9.15692 12.164C9.20609 12.172 9.25076 12.1974 9.2828 12.2355C9.31484 12.2736 9.33211 12.322 9.33147 12.3718C9.38134 13.1033 9.33147 15.8628 5.69089 15.7464C1.51836 15.6799 1.81759 13.2446 2.18331 13.3776Z" fill="white"/>
</g>
</svg>
