<svg width="18" height="18" viewBox="0 0 18 18" fill="none" xmlns="http://www.w3.org/2000/svg">
<g opacity="0.65">
<path d="M4.93985 6.63683C4.93985 6.18706 5.11841 5.75413 5.43679 5.43575C5.75516 5.11738 6.18641 4.93881 6.63786 4.93881C7.08764 4.93881 7.52056 5.11738 7.83894 5.43575L15.6417 13.2402C16.0831 13.6664 16.26 14.2981 16.105 14.8911C15.95 15.484 15.4868 15.949 14.8921 16.104C14.2992 16.2589 13.6675 16.0821 13.2413 15.6407L5.43679 7.83791C5.11841 7.51953 4.93985 7.08829 4.93985 6.63683ZM6.08196 7.27696L8.63236 9.82567C8.70648 9.54772 8.85303 9.28493 9.07034 9.06762C9.28765 8.85032 9.55044 8.70376 9.82838 8.62964L7.27799 6.07925C7.06405 5.86531 6.75241 5.78277 6.46099 5.86026C6.16956 5.93775 5.94215 6.16684 5.86297 6.45827C5.78549 6.75138 5.86803 7.06302 6.08196 7.27696ZM12.65 6.66042L11.7976 5.10221L10.2411 4.24984L11.7976 3.39914L12.65 1.84094L13.5024 3.39914L15.0589 4.24984L13.5024 5.10221L12.65 6.66042ZM2.99925 8.43592L3.63264 7.27864L4.26603 8.43592L5.42162 9.06931L4.26434 9.7027L3.63096 10.8583L2.99925 9.70101L1.84197 9.06762L2.99925 8.43592ZM6.04154 10.8583L6.67492 12.0156L7.83052 12.649L6.67492 13.2823V13.2807L6.04154 14.4379L5.40983 13.2807L4.25087 12.649L5.40983 12.0156L6.04154 10.8583Z" fill="white"/>
</g>
</svg>
