<svg width="18" height="18" viewBox="0 0 18 18" fill="none" xmlns="http://www.w3.org/2000/svg">
<g opacity="0.65">
<path d="M1.98438 8.99978C1.98438 5.12501 5.1256 1.98389 9.00036 1.98389V1.98389C12.8751 1.98389 16.0164 5.12501 16.0164 8.99978V8.99978C16.0164 12.8745 12.8751 16.0157 9.00036 16.0157V16.0157C5.1256 16.0157 1.98438 12.8745 1.98438 8.99978V8.99978Z" stroke="white" stroke-width="1.47273"/>
<path d="M9.66975 10.0227H10.8738C11.2058 10.0227 11.3967 10.4002 11.2 10.6677L8.6988 14.0675C8.58292 14.225 8.3332 14.1431 8.33318 13.9475L8.33288 11.0454H7.13332C6.80047 11.0454 6.60973 10.6662 6.80817 10.399L9.30467 7.03704C9.42098 6.88041 9.66975 6.96267 9.66975 7.15777V10.0227Z" fill="white"/>
<path d="M12.702 6.42798L11.8633 7.27153" stroke="white" stroke-width="1.47273" stroke-linecap="round"/>
<path d="M5.29688 6.42798L5.99669 7.12778" stroke="white" stroke-width="1.47273" stroke-linecap="round"/>
<path d="M8.82812 4.5V5.04545" stroke="white" stroke-width="1.47273" stroke-linecap="round"/>
</g>
</svg>
