<?xml version="1.0" encoding="UTF-8" standalone="no"?>
<svg
   width="40"
   height="40"
   viewBox="0 0 40 40"
   fill="none"
   version="1.1"
   id="svg4"
   xmlns="http://www.w3.org/2000/svg"
   xmlns:svg="http://www.w3.org/2000/svg">
  <defs
     id="defs8" />
  <path
     id="path1522"
     style="fill:#efefef;fill-opacity:1;stroke-width:0.607226"
     d="M 6.8007812 4 C 5.254373 4 4 5.0482853 4 6.3417969 L 4 13.347656 C 4 13.785997 4.1840663 14.212116 4.5195312 14.548828 L 9.2792969 19.326172 C 10.17486 20.225076 11.825138 20.225076 12.720703 19.326172 L 17.480469 14.548828 C 17.815909 14.212116 18 13.785997 18 13.347656 L 18 6.3417969 C 18 5.0482853 16.745627 4 15.199219 4 L 6.8007812 4 z M 6.9726562 6 L 15.027344 6 C 15.564761 6.0000257 16 6.4159737 16 6.9277344 L 16 12.759766 C 16 12.997147 15.903981 13.226272 15.732422 13.398438 L 11.705078 17.589844 C 11.321402 17.975017 10.678597 17.975017 10.294922 17.589844 L 6.265625 13.398438 C 6.0940778 13.226271 5.9999954 12.997147 6 12.759766 L 6 6.9277344 C 6.00001 6.4159737 6.4352371 5.9999743 6.9726562 6 z " />
  <path
     style="fill:#efefef;fill-opacity:1;stroke-width:0.512936"
     d="M 4,35 C 4,34.447732 4.5963638,34 5.3319624,34 H 18.668037 C 19.403696,34 20,34.447732 20,35 c 0,0.552267 -0.596304,1 -1.331963,1 H 5.3319624 C 4.5963638,36 4,35.552267 4,35 Z"
     id="path1520" />
  <path
     style="fill:#efefef;fill-opacity:1;stroke-width:0.5132"
     d="M 5.3333338,24 C 4.5969778,24 4,24.447734 4,25 c 0,0.552267 0.5969778,1 1.3333338,1 H 34.666666 C 35.403023,26 36,25.552267 36,25 36,24.447734 35.403023,24 34.666666,24 Z"
     id="path1518" />
  <path
     style="fill:#efefef;fill-opacity:1;stroke-width:0.544986"
     d="m 22,15 c 0,-0.552267 0.673215,-1 1.503607,-1 H 34.49639 C 35.326852,14 36,14.447733 36,15 c 0,0.552267 -0.673148,1 -1.50361,1 H 23.503607 C 22.673215,16 22,15.552267 22,15 Z"
     id="path1516" />
  <path
     style="fill:#efefef;fill-opacity:1;stroke-width:0.544986"
     d="M 22,5.0000004 C 22,4.4477334 22.673215,4 23.503607,4 H 34.49639 C 35.326852,4 36,4.4477334 36,5.0000004 36,5.552267 35.326852,6 34.49639,6 H 23.503607 C 22.673215,6 22,5.552267 22,5.0000004 Z"
     id="path2" />
</svg>
