<svg width="18" height="18" viewBox="0 0 18 18" fill="none" xmlns="http://www.w3.org/2000/svg">
<path d="M1.98438 9.00002C1.98438 5.12525 5.1256 1.98413 9.00036 1.98413V1.98413C12.8751 1.98413 16.0164 5.12525 16.0164 9.00002V9.00002C16.0164 12.8748 12.8751 16.0159 9.00036 16.0159V16.0159C5.1256 16.0159 1.98438 12.8748 1.98438 9.00002V9.00002Z" stroke="white" stroke-width="1.47273"/>
<path d="M5.7653 8.05322C4.29403 5.52309 6.19092 3.37142 7.46777 2.9458C5.55208 4.86108 5.97811 7.20198 7.68058 8.05322C9.80867 9.11726 11.2983 7.41479 11.5111 6.98917C12.6804 6.34128 15.3417 7.6276 15.1289 10.3941C14.2777 8.05322 11.9368 7.41479 10.2343 8.69165C8.53182 9.9685 9.38305 12.0966 9.59586 12.3094C9.40767 14.114 6.40373 14.4375 4.91406 13.7991C5.97811 14.0078 8.53182 13.5863 8.74463 11.2454C8.95744 8.90445 7.25496 8.05322 5.7653 8.05322Z" fill="white"/>
</svg>
