<svg width="18" height="18" viewBox="0 0 18 18" fill="none" xmlns="http://www.w3.org/2000/svg">
<g opacity="0.65">
<path d="M1.98438 3.62052C1.98438 3.39458 2.16753 3.21143 2.39347 3.21143H12.6878C12.9116 3.21143 13.0938 3.3912 13.0969 3.61494L13.141 6.8518C13.1457 7.19627 13.548 7.38104 13.8124 7.16012L15.9492 5.37432C15.9758 5.35206 16.0164 5.371 16.0164 5.40571V13.0034C16.0164 13.0381 15.9758 13.0571 15.9492 13.0348L13.8112 11.2481C13.5471 11.0273 13.145 11.2116 13.1398 11.5558L13.0974 14.3857C13.094 14.6092 12.9119 14.7887 12.6884 14.7887H2.39347C2.16753 14.7887 1.98438 14.6055 1.98438 14.3796V3.62052Z" stroke="white" stroke-width="1.47273"/>
<path d="M5.27734 9.00004V7.0633C5.27734 6.74838 5.61825 6.55156 5.89098 6.70902L7.56825 7.67739L9.24552 8.64576C9.51825 8.80322 9.51825 9.19687 9.24552 9.35432L7.56825 10.3227L5.89098 11.2911C5.61825 11.4485 5.27734 11.2517 5.27734 10.9368V9.00004Z" stroke="white" stroke-width="1.22727" stroke-linejoin="round"/>
</g>
</svg>
