<svg width="18" height="18" viewBox="0 0 18 18" fill="none" xmlns="http://www.w3.org/2000/svg">
<g opacity="0.65" clip-path="url(#clip0_647_37863)">
<path d="M13.1922 14.5962C12.0242 15.4688 10.5723 15.9887 8.99898 15.9887C6.41221 15.9887 4.15365 14.5833 2.94531 12.4944H5.85409" stroke="white" stroke-width="1.47273" stroke-linecap="round" stroke-linejoin="round"/>
<path d="M11.7969 2.59277C14.2651 3.6712 15.9901 6.1341 15.9901 8.9999C15.9901 10.2728 15.6497 11.4663 15.0551 12.4942L13.6426 10.0482" stroke="white" stroke-width="1.47273" stroke-linecap="round" stroke-linejoin="round"/>
<path d="M2.04623 9.69897C2.0234 9.46912 2.01172 9.23598 2.01172 9.00011C2.01172 5.14039 5.14064 2.01147 9.00036 2.01147L7.58785 4.4575" stroke="white" stroke-width="1.47273" stroke-linecap="round" stroke-linejoin="round"/>
<path d="M8.99893 11.0965C10.1568 11.0965 11.0955 10.1578 11.0955 8.99991C11.0955 7.842 10.1568 6.90332 8.99893 6.90332C7.84102 6.90332 6.90234 7.842 6.90234 8.99991C6.90234 10.1578 7.84102 11.0965 8.99893 11.0965Z" stroke="white" stroke-width="1.47273" stroke-linecap="round" stroke-linejoin="round"/>
</g>
<defs>
<clipPath id="clip0_647_37863">
<rect width="18" height="18" fill="white"/>
</clipPath>
</defs>
</svg>
