<svg width="18" height="18" viewBox="0 0 18 18" fill="none" xmlns="http://www.w3.org/2000/svg">
<g opacity="0.65">
<path d="M5.85547 4.90505L6.90376 2.60596H11.0969L12.1452 4.90505H5.85547Z" stroke="white" stroke-width="1.47273" stroke-linejoin="round"/>
<path d="M14.9407 4.90503H3.06001C2.48106 4.90503 2.01172 5.37437 2.01172 5.95332V14.3397C2.01172 14.9186 2.48106 15.388 3.06001 15.388H14.9407C15.5197 15.388 15.989 14.9186 15.989 14.3397V5.95332C15.989 5.37437 15.5197 4.90503 14.9407 4.90503Z" stroke="white" stroke-width="1.47273" stroke-linejoin="round"/>
<path d="M8.99858 12.9422C10.5425 12.9422 11.794 11.6907 11.794 10.1468C11.794 8.60288 10.5425 7.35132 8.99858 7.35132C7.45468 7.35132 6.20312 8.60288 6.20312 10.1468C6.20312 11.6907 7.45468 12.9422 8.99858 12.9422Z" stroke="white" stroke-width="1.47273" stroke-linejoin="round"/>
</g>
</svg>
