<svg width="18" height="18" viewBox="0 0 18 18" fill="none" xmlns="http://www.w3.org/2000/svg">
<g opacity="0.65">
<path d="M3.76153 10.6562C4.9393 12.2726 6.84695 13.3231 9 13.3231C11.153 13.3231 13.0607 12.2726 14.2385 10.6562C15.4096 11.8682 16.125 13.8966 16.125 15.6754H1.875C1.875 13.8966 2.5904 11.8682 3.76153 10.6562Z" stroke="white" stroke-width="1.47273" stroke-linejoin="round"/>
<path d="M8.99929 10.7322C11.3245 10.7322 13.2095 8.84724 13.2095 6.522C13.2095 4.19675 11.3245 2.31177 8.99929 2.31177C6.67405 2.31177 4.78906 4.19675 4.78906 6.522C4.78906 8.84724 6.67405 10.7322 8.99929 10.7322Z" stroke="white" stroke-width="1.39091" stroke-linejoin="round"/>
<path d="M8.99822 8.14122C9.89254 8.14122 10.6175 7.41622 10.6175 6.52191C10.6175 5.62759 9.89254 4.90259 8.99822 4.90259C8.10391 4.90259 7.37891 5.62759 7.37891 6.52191C7.37891 7.41622 8.10391 8.14122 8.99822 8.14122Z" stroke="white" stroke-width="1.39091" stroke-linejoin="round"/>
</g>
</svg>
