<svg width="18" height="18" viewBox="0 0 18 18" fill="none" xmlns="http://www.w3.org/2000/svg">
<g opacity="0.65">
<path d="M7.73047 7.87197C7.73047 7.51616 8.12703 7.30392 8.42309 7.5013L10.1148 8.62907C10.3793 8.80541 10.3793 9.19409 10.1148 9.37043L8.42309 10.4982C8.12703 10.6956 7.73047 10.4833 7.73047 10.1275V7.87197Z" stroke="white" stroke-width="1.03091" stroke-linecap="round" stroke-linejoin="round"/>
<path d="M1.98438 3.21116C1.98438 2.53336 2.53384 1.98389 3.21165 1.98389H14.7891C15.4669 1.98389 16.0164 2.53336 16.0164 3.21116V14.7884C16.0164 15.4662 15.4669 16.0157 14.7891 16.0157H3.21165C2.53384 16.0157 1.98438 15.4662 1.98438 14.7884V3.21116Z" stroke="white" stroke-width="1.47273"/>
<path d="M1.98438 4.84766H16.0164V13.1522H1.98438V4.84766Z" stroke="white" stroke-width="1.47273"/>
</g>
</svg>
