<svg width="44" height="44" viewBox="0 0 44 44" fill="none" xmlns="http://www.w3.org/2000/svg">
<g opacity="0.65">
<g clip-path="url(#clip0_978_23406)">
<path d="M30.0478 37.1426C30.3036 37.7688 30.4512 38.4643 30.4767 39.1672C30.4785 39.3259 30.5091 39.4817 30.5477 39.6102L30.5476 39.6102L30.5498 39.6169C30.8238 40.4242 31.7155 40.8822 32.5217 40.613C34.3914 39.9893 35.9734 38.7996 37.106 37.2604L37.1072 37.2586C38.1801 35.7669 38.8159 33.9393 38.845 31.9798L38.8451 31.9798L38.845 31.9756L38.8443 31.8682C38.8443 31.8678 38.8443 31.8675 38.8443 31.8672C38.8506 30.0254 38.3051 28.3025 37.3809 26.8741C36.6119 25.6832 35.5788 24.6781 34.3568 23.9592L34.3639 23.8214L34.3644 23.811L34.3639 23.8006L34.3572 23.6752C34.3632 19.496 33.2235 15.5252 31.2684 12.1345C29.2483 8.62532 26.3331 5.70692 22.8336 3.67621L22.8313 3.67385L22.8125 3.65501L22.7893 3.64177C22.3123 3.36826 21.7161 3.35122 21.2127 3.64943C17.6811 5.6738 14.7514 8.60362 12.7278 12.1348C10.766 15.5341 9.63861 19.4933 9.62523 23.6809L9.62431 23.9687C8.41376 24.7079 7.39416 25.689 6.62243 26.8666L6.62242 26.8666L6.62124 26.8685C5.69962 28.309 5.13782 30.0307 5.15955 31.8748C5.15853 33.8907 5.79736 35.733 6.90347 37.2591L6.90356 37.2592C8.01434 38.7893 9.58604 39.9716 11.4246 40.5823C11.5623 40.6415 11.7123 40.6608 11.8437 40.6776C11.8589 40.6795 11.8739 40.6815 11.8886 40.6834L11.899 40.6848L11.9094 40.6851C12.765 40.7083 13.4869 40.0335 13.5252 39.1784L13.5253 39.1768C13.5517 38.4614 13.6985 37.7799 13.9592 37.1489C14.0288 37.2427 14.0993 37.3357 14.1691 37.4276C14.2545 37.5401 14.3387 37.651 14.4184 37.76L14.4184 37.76L14.4215 37.7641C15.0753 38.6112 15.7712 39.39 16.52 40.1393C16.812 40.4908 17.2282 40.6834 17.6891 40.6983L17.6891 40.6984L17.6958 40.6984L26.3072 40.6909L26.3072 40.691L26.3148 40.6908C26.7038 40.6757 27.0878 40.5276 27.3862 40.2295C27.3864 40.2293 27.3866 40.2291 27.3867 40.229L30.0478 37.1426ZM30.0478 37.1426C29.8929 37.3584 29.7325 37.5728 29.5761 37.7765L30.0478 37.1426ZM10.7797 36.7856C10.257 36.4065 9.80045 35.9416 9.44061 35.4308L9.44065 35.4308L9.43815 35.4274C8.74842 34.4908 8.33876 33.3772 8.28452 32.1484L8.28466 31.8739C8.28528 30.6532 8.64416 29.5129 9.26567 28.5724L9.26569 28.5724L9.26701 28.5703C9.88993 27.6022 10.7993 26.8006 11.878 26.3168C12.5117 26.0471 12.8446 25.4079 12.7929 24.7633L12.7692 24.307L12.77 24.3062L12.7711 24.2251L12.7787 23.6978L12.7788 23.6978V23.6949C12.7787 20.0587 13.749 16.6347 15.444 13.6903C17.0578 10.9121 19.2996 8.54941 21.9918 6.81957C24.705 8.54375 26.9655 10.9254 28.5654 13.7044L28.5658 13.705C30.2544 16.614 31.2377 20.0384 31.2239 23.6865L31.224 23.6892L31.2246 23.758L31.2246 23.7585L31.2302 24.2413L31.2171 24.8243C31.1804 25.473 31.561 26.0773 32.1181 26.3166C33.2001 26.8009 34.1197 27.5775 34.7421 28.5685L34.7436 28.5708C35.3542 29.5137 35.7315 30.6478 35.7174 31.8645L35.7173 31.8756L35.7184 31.8866L35.7248 31.9509C35.7017 33.2525 35.2721 34.4353 34.5705 35.4156L34.5705 35.4156L34.5677 35.4198C34.203 35.9575 33.7472 36.415 33.2254 36.7824C33.1362 36.488 33.0346 36.1988 32.9342 35.9278L32.9344 35.9278L32.931 35.9198C32.5047 34.9067 31.9236 33.9903 31.1877 33.1986C30.6064 32.5547 29.6031 32.5214 28.9808 33.1099C28.8528 33.2224 28.7446 33.3633 28.6665 33.5028L28.6655 33.5048C28.2137 34.3341 27.6728 35.1204 27.1003 35.8688C26.6425 36.4584 26.166 37.0279 25.6597 37.5644L18.3444 37.5583C17.8423 37.0268 17.3538 36.457 16.8955 35.8696C16.3328 35.1164 15.8034 34.315 15.3273 33.4869C14.9102 32.7587 13.9621 32.4504 13.2144 32.9006C13.0443 32.973 12.9017 33.1041 12.8003 33.2055L12.8 33.2053L12.7914 33.215C12.0873 34.0168 11.4995 34.9114 11.079 35.9205L11.0786 35.9215C10.965 36.1984 10.8681 36.4898 10.7797 36.7856Z" fill="white" stroke="white" stroke-width="0.4"/>
<circle cx="22" cy="20.9307" r="2.25" fill="white"/>
</g>
</g>
<defs>
<clipPath id="clip0_978_23406">
<rect width="41" height="41" fill="white" transform="translate(1.5 1.5)"/>
</clipPath>
</defs>
</svg>
