<svg width="44" height="44" viewBox="0 0 44 44" fill="none" xmlns="http://www.w3.org/2000/svg">
<g opacity="0.65">
<path d="M12.5672 17.6471H6.83C6.42563 19.0626 6.22124 20.5278 6.22276 22C6.22276 23.5105 6.43388 24.9709 6.83218 26.3529H12.5694C12.3299 24.96 12.2081 23.5083 12.2081 22C12.2081 20.4917 12.3299 19.04 12.5694 17.6471H12.5672ZM14.7806 17.6471C14.5103 19.0821 14.3769 20.5397 14.3824 22C14.3824 23.5192 14.5129 24.9709 14.7806 26.3529H20.9118V17.6471H14.7806ZM17.9692 37.2592C15.6478 34.7905 13.9613 31.7946 13.0547 28.5294H7.63094C8.60113 30.6586 10.0317 32.5461 11.8194 34.0557C13.6071 35.5653 15.7075 36.6594 17.9692 37.2592ZM20.9118 37.1069V28.5294H15.3248C16.3477 31.8072 18.2086 34.6605 20.9118 37.1091V37.1069ZM17.9636 6.74443C15.7042 7.34433 13.606 8.43758 11.8197 9.94554C10.032 11.4547 8.60139 13.3418 7.63094 15.4706H13.0547C13.9602 12.2072 15.6448 9.21267 17.9636 6.74443ZM20.9118 6.89529C18.2086 9.33729 16.3499 12.1906 15.3248 15.4706H20.9118V6.89529ZM31.4328 17.6471C31.6722 19.04 31.7941 20.4917 31.7941 22C31.7941 23.5083 31.6722 24.96 31.4328 26.3529H37.1722C37.5683 24.9709 37.7794 23.5105 37.7794 22C37.7794 20.4895 37.5683 19.0291 37.17 17.6471H31.4328ZM29.2194 17.6471H23.0882V26.3529H29.2194C29.4849 24.9709 29.6176 23.5192 29.6176 22C29.6176 20.4808 29.4871 19.0291 29.2194 17.6471ZM26.0337 37.2585C28.2943 36.6585 30.3937 35.5646 32.1806 34.0557C33.9683 32.5461 35.3989 30.6586 36.3691 28.5294H30.9453C30.0395 31.794 28.3539 34.7897 26.0337 37.2585ZM23.0882 37.1069C25.7914 34.6605 27.6501 31.8072 28.6752 28.5294H23.0882V37.1069ZM26.0308 6.74294C28.3519 9.21104 30.0384 12.2062 30.9453 15.4706H36.3712C35.401 13.3414 33.9705 11.4539 32.1828 9.94432C30.3951 8.43472 28.2947 7.34058 26.033 6.74076L26.0308 6.74294ZM23.0882 6.89529V15.4706H28.6752C27.6523 12.1928 25.7914 9.33947 23.0882 6.89094V6.89529ZM22 40.5C17.0935 40.5 12.3879 38.5509 8.91852 35.0815C5.4491 31.6121 3.5 26.9065 3.5 22C3.5 17.0935 5.4491 12.3879 8.91852 8.91852C12.3879 5.4491 17.0935 3.5 22 3.5C26.9065 3.5 31.6121 5.4491 35.0815 8.91852C38.5509 12.3879 40.5 17.0935 40.5 22C40.5 26.9065 38.5509 31.6121 35.0815 35.0815C31.6121 38.5509 26.9065 40.5 22 40.5Z" fill="white"/>
<path d="M12.5672 17.6471H6.83C6.42563 19.0626 6.22124 20.5278 6.22276 22C6.22276 23.5105 6.43388 24.9709 6.83218 26.3529H12.5694C12.3299 24.96 12.2081 23.5083 12.2081 22C12.2081 20.4917 12.3299 19.04 12.5694 17.6471H12.5672ZM14.7806 17.6471C14.5103 19.0821 14.3769 20.5397 14.3824 22C14.3824 23.5192 14.5129 24.9709 14.7806 26.3529H20.9118V17.6471H14.7806ZM17.9692 37.2592C15.6478 34.7905 13.9613 31.7946 13.0547 28.5294H7.63094C8.60113 30.6586 10.0317 32.5461 11.8194 34.0557C13.6071 35.5653 15.7075 36.6594 17.9692 37.2592ZM20.9118 37.1069V28.5294H15.3248C16.3477 31.8072 18.2086 34.6605 20.9118 37.1091V37.1069ZM17.9636 6.74443C15.7042 7.34433 13.606 8.43758 11.8197 9.94554C10.032 11.4547 8.60139 13.3418 7.63094 15.4706H13.0547C13.9602 12.2072 15.6448 9.21267 17.9636 6.74443ZM20.9118 6.89529C18.2086 9.33729 16.3499 12.1906 15.3248 15.4706H20.9118V6.89529ZM31.4328 17.6471C31.6722 19.04 31.7941 20.4917 31.7941 22C31.7941 23.5083 31.6722 24.96 31.4328 26.3529H37.1722C37.5683 24.9709 37.7794 23.5105 37.7794 22C37.7794 20.4895 37.5683 19.0291 37.17 17.6471H31.4328ZM29.2194 17.6471H23.0882V26.3529H29.2194C29.4849 24.9709 29.6176 23.5192 29.6176 22C29.6176 20.4808 29.4871 19.0291 29.2194 17.6471ZM26.0337 37.2585C28.2943 36.6585 30.3937 35.5646 32.1806 34.0557C33.9683 32.5461 35.3989 30.6586 36.3691 28.5294H30.9453C30.0395 31.794 28.3539 34.7897 26.0337 37.2585ZM23.0882 37.1069C25.7914 34.6605 27.6501 31.8072 28.6752 28.5294H23.0882V37.1069ZM26.0308 6.74294C28.3519 9.21104 30.0384 12.2062 30.9453 15.4706H36.3712C35.401 13.3414 33.9705 11.4539 32.1828 9.94432C30.3951 8.43472 28.2947 7.34058 26.033 6.74076L26.0308 6.74294ZM23.0882 6.89529V15.4706H28.6752C27.6523 12.1928 25.7914 9.33947 23.0882 6.89094V6.89529ZM22 40.5C17.0935 40.5 12.3879 38.5509 8.91852 35.0815C5.4491 31.6121 3.5 26.9065 3.5 22C3.5 17.0935 5.4491 12.3879 8.91852 8.91852C12.3879 5.4491 17.0935 3.5 22 3.5C26.9065 3.5 31.6121 5.4491 35.0815 8.91852C38.5509 12.3879 40.5 17.0935 40.5 22C40.5 26.9065 38.5509 31.6121 35.0815 35.0815C31.6121 38.5509 26.9065 40.5 22 40.5Z" stroke="white"/>
</g>
</svg>
