<svg xmlns="http://www.w3.org/2000/svg" xmlns:xlink="http://www.w3.org/1999/xlink" fill="none" version="1.1" width="74" height="74" viewBox="0 0 74 74"><defs><clipPath id="master_svg0_8_428"><rect x="0" y="0" width="74" height="74" rx="0"/></clipPath><mask id="master_svg1_8_431" style="mask-type:alpha" maskUnits="userSpaceOnUse"><g><rect x="17" y="17" width="40" height="40" rx="0" fill="#FFFFFF" fill-opacity="1"/></g></mask><mask id="master_svg2_8_434" style="mask-type:alpha" maskUnits="userSpaceOnUse"><g><rect x="17" y="17" width="40" height="40" rx="0" fill="#FFFFFF" fill-opacity="1"/></g></mask></defs><g clip-path="url(#master_svg0_8_428)"><g><g mask="url(#master_svg1_8_431)"><g><path d="M33.039100856933594,26.824800555908205L46.25789085693359,36.423098555908204C46.349190856933596,36.488798555908204,46.4234908569336,36.575298555908205,46.474790856933595,36.6753985559082C46.525990856933596,36.7755885559082,46.5527908569336,36.8864885559082,46.5527908569336,36.9988885559082C46.5527908569336,37.111388555908206,46.525990856933596,37.22228855590821,46.474790856933595,37.322388555908205C46.4234908569336,37.422588555908206,46.349190856933596,37.50908855590821,46.25789085693359,37.5747885559082L33.039100856933594,47.17308855590821C32.57039985693359,47.5122885559082,31.909700393673592,47.181988555908205,31.909700393673592,46.597188555908204L31.909700393673592,27.400699555908204C31.909000396933592,27.269300555908202,31.944900556933593,27.140199555908204,32.013301856933595,27.027999555908202C32.0816998569336,26.915700555908202,32.17999985693359,26.824699555908204,32.29709985693359,26.764999355908202C32.41419985693359,26.7052001559082,32.545600856933596,26.679199215908202,32.676601856933594,26.689800265908204C32.8075978569336,26.700399355908203,32.93310085693359,26.747100855908204,33.039100856933594,26.824800555908205ZM34.757900856933595,31.592698555908203L34.757900856933595,42.405188555908204L42.19989085693359,36.9988885559082L34.757900856933595,31.592698555908203Z" fill-rule="evenodd" fill="#FFFFFF" fill-opacity="1"/></g></g><g mask="url(#master_svg2_8_434)"><g><path d="M17,37C17,25.955399999999997,25.955399999999997,17,37,17C48.0446,17,57,25.955399999999997,57,37C57,48.0446,48.0446,57,37,57C25.955399999999997,57,17,48.0446,17,37ZM20.3929,37C20.3929,46.1696,27.830399999999997,53.6071,37,53.6071C46.1696,53.6071,53.6071,46.1696,53.6071,37C53.6071,27.830399999999997,46.1696,20.3929,37,20.3929C27.830399999999997,20.3929,20.3929,27.830399999999997,20.3929,37Z" fill-rule="evenodd" fill="#FFFFFF" fill-opacity="1"/></g></g></g></g></svg>