<svg width="24" height="24" viewBox="0 0 24 24" fill="none" xmlns="http://www.w3.org/2000/svg">
<path d="M17.0303 12C17.0303 9.22201 14.778 6.96973 12 6.96973C9.22201 6.96973 6.96973 9.22201 6.96973 12C6.96973 14.778 9.22201 17.0303 12 17.0303C14.778 17.0303 17.0303 14.778 17.0303 12ZM18.9697 12C18.9697 15.8494 15.8494 18.9697 12 18.9697C8.15058 18.9697 5.03027 15.8494 5.03027 12C5.03027 8.15058 8.15058 5.03027 12 5.03027C15.8494 5.03027 18.9697 8.15058 18.9697 12Z" fill="white"/>
<path d="M13 12C13 11.4477 13.4477 11 14 11H18V13H14C13.4477 13 13 12.5523 13 12Z" fill="white"/>
<path d="M20 5C20 4.48232 19.6067 4.05621 19.1025 4.00488L19 4H5C4.44772 4 4 4.44772 4 5V19L4.00488 19.1025C4.05621 19.6067 4.48232 20 5 20H19C19.5523 20 20 19.5523 20 19V5ZM22 19C22 20.6569 20.6569 22 19 22H5C3.39489 22 2.08421 20.7394 2.00391 19.1543L2 19V5C2 3.34315 3.34315 2 5 2H19L19.1543 2.00391C20.7394 2.08421 22 3.39489 22 5V19Z" fill="white"/>
</svg>
