<svg width="24" height="24" viewBox="0 0 24 24" fill="none" xmlns="http://www.w3.org/2000/svg">
<path d="M12.8296 1.01205C13.2416 0.952269 13.6657 1.05457 14.0054 1.29525L14.1685 1.42709L14.312 1.57943C14.6059 1.93417 14.7348 2.4042 14.6646 2.86264L14.6675 2.86361C14.5036 4.17438 14.5421 5.79749 14.8062 7.31381C15.1266 6.56123 15.6389 5.76674 16.4956 5.40463C17.0383 5.16662 17.6798 5.24801 18.146 5.61459H18.145C18.6279 5.99133 18.834 6.59151 18.7417 7.15854L18.7437 7.15951C18.6131 8.00846 18.9545 8.90821 19.5073 10.14C20.0106 11.2614 20.7075 12.6885 20.7075 14.2191V14.2201C20.7027 19.3159 16.8051 22.9944 11.5874 22.9945C6.38496 22.9945 2.6101 19.2933 2.60986 14.2152C2.60986 12.8427 3.0117 11.4681 3.39209 10.4632C3.76773 9.47094 4.15484 8.75695 4.22607 8.63412C4.52701 8.10913 5.10556 7.79268 5.70557 7.81674L5.82666 7.8265L5.84229 7.82846C6.34876 7.89563 6.76357 8.18979 7.01025 8.59018C7.12372 7.66734 7.33796 6.75302 7.6665 5.89193C8.49721 3.71488 10.0849 1.80223 12.6147 1.05893L12.6245 1.056L12.8296 1.01205ZM4.60986 14.2152C4.61009 18.1498 7.45022 20.9945 11.5874 20.9945C15.7807 20.9944 18.7033 18.1325 18.7075 14.2191L18.7017 14.0296C18.6489 13.0836 18.2107 12.1371 17.6821 10.9593C17.2882 10.0815 16.8245 9.03341 16.7339 7.90658C16.6548 8.067 16.5735 8.25979 16.4966 8.49154C16.3098 9.05393 16.1877 9.68885 16.1021 10.2679L16.0278 10.8236C15.9092 11.7951 14.5881 12.1891 14.022 11.2943L13.9692 11.2044C12.7735 8.93517 12.4196 5.64607 12.6255 3.17611C11.1468 3.79762 10.1331 5.03934 9.53564 6.60482C8.86061 8.37404 8.75358 10.4794 9.12061 12.2845L9.14111 12.4525C9.17127 13.2619 8.25141 13.9819 7.44092 13.4183L7.35791 13.3548C6.68579 12.807 6.27685 12.1244 5.98486 11.473C5.83571 11.1402 5.69867 10.7681 5.57471 10.4173C5.47702 10.6357 5.36863 10.8901 5.26221 11.1712C4.91783 12.0809 4.60986 13.1936 4.60986 14.2152Z" fill="#00FFE6"/>
</svg>
