<svg width="24" height="24" viewBox="0 0 24 24" fill="none" xmlns="http://www.w3.org/2000/svg">
<path d="M15.3885 7.50066L14.7604 5.15659C14.4745 4.08966 13.3778 3.4565 12.3109 3.74238L4.58349 5.81293C3.51656 6.09882 2.88339 7.19549 3.16928 8.26242L5.23983 15.9898C5.52571 17.0568 6.62239 17.6899 7.68932 17.404L8.65524 17.1452C9.18871 17.0023 9.73705 17.3189 9.87999 17.8523C10.0229 18.3858 9.70635 18.9341 9.17288 19.0771L8.20696 19.3359C6.07309 19.9077 3.87974 18.6413 3.30798 16.5075L1.23742 8.78006C0.665658 6.6462 1.93199 4.45285 4.06585 3.88108L11.7933 1.81053C13.9271 1.23876 16.1205 2.50509 16.6922 4.63896L17.3203 6.98302C17.4633 7.51649 17.1467 8.06483 16.6132 8.20777C16.0798 8.35071 15.5314 8.03413 15.3885 7.50066Z" fill="white"/>
<path d="M21 14.5C21 11.4624 18.5376 9 15.5 9C12.4624 9 10 11.4624 10 14.5C10 17.5376 12.4624 20 15.5 20C18.5376 20 21 17.5376 21 14.5ZM23 14.5C23 18.6421 19.6421 22 15.5 22C11.3579 22 8 18.6421 8 14.5C8 10.3579 11.3579 7 15.5 7C19.6421 7 23 10.3579 23 14.5Z" fill="white"/>
</svg>
