<svg width="24" height="24" viewBox="0 0 24 24" fill="none" xmlns="http://www.w3.org/2000/svg">
<path d="M12.8296 1.01204C13.2416 0.952253 13.6657 1.05455 14.0054 1.29524L14.1685 1.42707L14.312 1.57942C14.6059 1.93415 14.7348 2.40419 14.6646 2.86262L14.6675 2.8636C14.5036 4.17436 14.5421 5.79747 14.8062 7.31379C15.1266 6.56122 15.6389 5.76672 16.4956 5.40461C17.0383 5.1666 17.6798 5.24799 18.146 5.61457H18.145C18.6279 5.99132 18.834 6.59149 18.7417 7.15852L18.7437 7.1595C18.6131 8.00844 18.9545 8.9082 19.5073 10.14C20.0106 11.2613 20.7075 12.6885 20.7075 14.2191V14.22C20.7027 19.3158 16.8051 22.9944 11.5874 22.9945C6.38496 22.9945 2.6101 19.2933 2.60986 14.2152C2.60986 12.8427 3.0117 11.468 3.39209 10.4632C3.76773 9.47092 4.15484 8.75694 4.22607 8.63411C4.52701 8.10911 5.10556 7.79267 5.70557 7.81672L5.82666 7.82649L5.84229 7.82844C6.34876 7.89562 6.76357 8.18977 7.01025 8.59016C7.12372 7.66733 7.33796 6.75301 7.6665 5.89192C8.49721 3.71486 10.0849 1.80221 12.6147 1.05891L12.6245 1.05598L12.8296 1.01204ZM4.60986 14.2152C4.61009 18.1498 7.45022 20.9945 11.5874 20.9945C15.7807 20.9944 18.7033 18.1325 18.7075 14.2191L18.7017 14.0296C18.6489 13.0836 18.2107 12.1371 17.6821 10.9593C17.2882 10.0815 16.8245 9.0334 16.7339 7.90657C16.6548 8.06699 16.5735 8.25977 16.4966 8.49153C16.3098 9.05392 16.1877 9.68884 16.1021 10.2679L16.0278 10.8236C15.9092 11.7951 14.5881 12.1891 14.022 11.2943L13.9692 11.2044C12.7735 8.93516 12.4196 5.64606 12.6255 3.1761C11.1468 3.7976 10.1331 5.03932 9.53564 6.60481C8.86061 8.37403 8.75358 10.4794 9.12061 12.2845L9.14111 12.4525C9.17127 13.2619 8.25141 13.9818 7.44092 13.4183L7.35791 13.3548C6.68579 12.807 6.27685 12.1244 5.98486 11.473C5.83571 11.1402 5.69867 10.7681 5.57471 10.4173C5.47702 10.6357 5.36863 10.8901 5.26221 11.1712C4.91783 12.0809 4.60986 13.1935 4.60986 14.2152Z" fill="#A6A6A6"/>
</svg>
