<svg width="18" height="18" viewBox="0 0 18 18" fill="none" xmlns="http://www.w3.org/2000/svg">
<g opacity="0.65">
<path d="M1.98438 3.2114C1.98438 2.5336 2.53384 1.98413 3.21165 1.98413H14.7891C15.4669 1.98413 16.0164 2.5336 16.0164 3.2114V14.7886C16.0164 15.4664 15.4669 16.0159 14.7891 16.0159H3.21165C2.53384 16.0159 1.98438 15.4664 1.98438 14.7886V3.2114Z" stroke="white" stroke-width="1.47273"/>
<path d="M6.32031 9.00011V6.49509C6.32031 6.13882 6.70599 5.91615 7.01453 6.09428L9.18395 7.3468L11.3534 8.59931C11.6619 8.77744 11.6619 9.22278 11.3534 9.40092L9.18395 10.6534L7.01453 11.9059C6.70599 12.0841 6.32031 11.8614 6.32031 11.5051V9.00011Z" stroke="white" stroke-width="1.47273" stroke-linejoin="round"/>
</g>
</svg>
