<svg width="18" height="18" viewBox="0 0 18 18" fill="none" xmlns="http://www.w3.org/2000/svg">
<g opacity="0.65">
<path d="M1.98438 3.21122C1.98438 2.53342 2.53384 1.98395 3.21165 1.98395H14.7889C15.4667 1.98395 16.0162 2.53342 16.0162 3.21122V14.7885C16.0162 15.4663 15.4667 16.0158 14.7889 16.0158H3.21165C2.53384 16.0158 1.98438 15.4663 1.98438 14.7885V3.21122Z" stroke="white" stroke-width="1.47273"/>
<path d="M12.2734 10.8407L13.0916 11.6589L12.2734 12.4771" stroke="white" stroke-width="1.14545" stroke-linecap="round" stroke-linejoin="round"/>
<path d="M12.2734 5.52252L13.0916 6.3407L12.2734 7.15889" stroke="white" stroke-width="1.14545" stroke-linecap="round" stroke-linejoin="round"/>
<path d="M13.0909 6.3407H11.6591C10.1905 6.3407 9 7.53121 9 8.99979C9 10.4684 10.1905 11.6589 11.6591 11.6589H13.0909" stroke="white" stroke-width="1.14545" stroke-linecap="round"/>
<path d="M4.91016 11.6589H6.34197C7.81055 11.6589 9.00107 10.4684 9.00107 8.99979C9.00107 7.53121 7.81055 6.3407 6.34197 6.3407H4.91016" stroke="white" stroke-width="1.14545" stroke-linecap="round"/>
</g>
</svg>
