<svg width="74" height="74" viewBox="0 0 74 74" fill="none" xmlns="http://www.w3.org/2000/svg">
<g clip-path="url(#clip0_4102_7493)">
<path d="M52.2857 49.8973C52.2946 49.8839 52.308 49.8705 52.317 49.8571C55.2411 46.3795 57 41.8973 57 37C57 32.1027 55.2411 27.6205 52.3214 24.1429C52.3125 24.1295 52.2991 24.1205 52.2902 24.1071C52.2411 24.0491 52.1964 23.9955 52.1473 23.942C52.1295 23.9196 52.1116 23.9018 52.0938 23.8795L51.9107 23.6696L51.9063 23.6652C51.8393 23.5893 51.7679 23.5134 51.7009 23.4375L51.6964 23.433C51.5536 23.2813 51.4107 23.1295 51.2634 22.9821L51.2589 22.9777L51.0446 22.7634L51.0312 22.75C50.9643 22.683 50.8973 22.6205 50.8304 22.558C50.808 22.5357 50.7857 22.5134 50.7589 22.4911C50.7143 22.4464 50.6696 22.4062 50.625 22.3661C50.6116 22.3527 50.5938 22.3393 50.5804 22.3214C47.0179 19.0179 42.2455 17 37 17C31.7545 17 26.9821 19.0179 23.4152 22.3214C23.4018 22.3348 23.3839 22.3482 23.3705 22.3661C23.3259 22.4062 23.2812 22.4509 23.2366 22.4955C23.2143 22.5179 23.192 22.5402 23.1652 22.5625C23.0982 22.625 23.0313 22.692 22.9643 22.7545L22.9509 22.7679L22.7366 22.9821L22.7321 22.9866C22.5848 23.1339 22.442 23.2857 22.2991 23.4375L22.2946 23.442C22.2232 23.5179 22.1562 23.5938 22.0893 23.6696L22.0848 23.6741C22.0223 23.7411 21.9598 23.8125 21.9018 23.8839C21.8839 23.9062 21.8661 23.9241 21.8482 23.9464C21.7991 24 21.7545 24.058 21.7054 24.1116C21.6964 24.125 21.683 24.1339 21.6741 24.1473C18.7589 27.6205 17 32.1027 17 37C17 41.8973 18.7589 46.3795 21.6786 49.8571C21.6875 49.8705 21.7009 49.8839 21.7098 49.8973L21.8482 50.0625C21.8661 50.0848 21.8839 50.1027 21.9018 50.125L22.0848 50.3348C22.0848 50.3393 22.0893 50.3393 22.0893 50.3438C22.1562 50.4196 22.2232 50.4955 22.2946 50.567L22.2991 50.5714C22.442 50.7232 22.5848 50.875 22.7277 51.0223L22.7321 51.0268C22.8036 51.0982 22.8705 51.1696 22.942 51.2366L22.9554 51.25C23.1027 51.3973 23.2545 51.5402 23.4062 51.6786C26.9821 54.9821 31.7545 57 37 57C42.2455 57 47.0179 54.9821 50.5848 51.6786C50.7369 51.5392 50.8858 51.3963 51.0312 51.25L51.0446 51.2366C51.1161 51.1652 51.1875 51.0982 51.2545 51.0268L51.2589 51.0223C51.4063 50.875 51.5491 50.7232 51.6875 50.5714L51.692 50.567C51.7589 50.4911 51.8304 50.4196 51.8973 50.3438C51.8973 50.3393 51.9018 50.3393 51.9018 50.3348C51.9643 50.2679 52.0268 50.1964 52.0848 50.125C52.1027 50.1027 52.1205 50.0848 52.1384 50.0625C52.1889 50.0087 52.238 49.9536 52.2857 49.8973ZM52.4688 43.5312C51.8527 44.9866 51.0402 46.3348 50.0491 47.558C48.9329 46.5934 47.7126 45.7564 46.4107 45.0625C46.9286 42.9688 47.25 40.6696 47.3348 38.25H53.7411C53.6071 40.0759 53.1786 41.8482 52.4688 43.5312ZM53.7411 35.75H47.3348C47.25 33.3304 46.9286 31.0312 46.4107 28.9375C47.7188 28.2411 48.9375 27.4018 50.0491 26.442C52.2034 29.0936 53.4921 32.3426 53.7411 35.75ZM43.5312 21.5312C45.3036 22.2812 46.9152 23.317 48.3348 24.6205C47.5101 25.3227 46.6224 25.9474 45.683 26.4866C44.9821 24.4777 44.0848 22.7321 43.0402 21.3348C43.2054 21.3973 43.3705 21.4643 43.5312 21.5312ZM39.4866 52.808C39.0759 53.1295 38.6652 53.375 38.25 53.5402V45.2589C40.0214 45.3825 41.7634 45.777 43.4152 46.4286C43.0446 47.5268 42.6161 48.5402 42.1205 49.4554C41.3438 50.9018 40.433 52.058 39.4866 52.808ZM42.1205 24.5446C42.6116 25.4643 43.0446 26.4777 43.4152 27.5714C41.7634 28.223 40.0214 28.6175 38.25 28.7411V20.4643C38.6607 20.6295 39.0759 20.8705 39.4866 21.1964C40.433 21.942 41.3438 23.0982 42.1205 24.5446ZM38.25 42.7545V38.25H44.8348C44.7634 40.2232 44.5179 42.1384 44.1071 43.9554L44.0938 44.0089C42.2202 43.2985 40.25 42.8755 38.25 42.7545ZM38.25 35.75V31.2455C40.2946 31.1205 42.2589 30.6875 44.0938 29.9911L44.1071 30.0446C44.5179 31.8616 44.7634 33.7723 44.8348 35.75H38.25ZM35.75 38.25V42.7545C33.7054 42.8795 31.7411 43.3125 29.9063 44.0089L29.8929 43.9554C29.4821 42.1384 29.2366 40.2277 29.1652 38.25H35.75ZM29.1652 35.75C29.2366 33.7768 29.4821 31.8616 29.8929 30.0446L29.9063 29.9911C31.7411 30.6875 33.7009 31.1205 35.75 31.2455V35.75H29.1652ZM35.75 45.2589V53.5357C35.3393 53.3705 34.9241 53.1295 34.5134 52.8036C33.567 52.058 32.6518 50.8973 31.875 49.4509C31.3839 48.5313 30.9509 47.5179 30.5804 46.4241C32.2411 45.7723 33.9688 45.3839 35.75 45.2589ZM35.75 28.7411C33.9786 28.6175 32.2366 28.223 30.5848 27.5714C30.9554 26.4732 31.3839 25.4598 31.8795 24.5446C32.6562 23.0982 33.567 21.9375 34.5179 21.192C34.9286 20.8705 35.3393 20.625 35.7545 20.4598V28.7411H35.75ZM30.4688 21.5312C30.6339 21.4643 30.7946 21.3973 30.9598 21.3348C29.9152 22.7321 29.0179 24.4777 28.317 26.4866C27.3795 25.9509 26.4911 25.3259 25.6652 24.6205C27.0848 23.317 28.6964 22.2812 30.4688 21.5312ZM21.5312 30.4688C22.1473 29.0134 22.9598 27.6652 23.9509 26.442C25.0625 27.4018 26.2813 28.2411 27.5893 28.9375C27.0714 31.0312 26.75 33.3304 26.6652 35.75H20.2589C20.3929 33.9241 20.8214 32.1518 21.5312 30.4688ZM20.2589 38.25H26.6652C26.75 40.6696 27.0714 42.9688 27.5893 45.0625C26.2874 45.7564 25.0671 46.5934 23.9509 47.558C21.7966 44.9064 20.5079 41.6574 20.2589 38.25ZM30.4688 52.4688C28.6964 51.7188 27.0848 50.683 25.6652 49.3795C26.4911 48.6741 27.3795 48.0536 28.317 47.5134C29.0179 49.5223 29.9152 51.2679 30.9598 52.6652C30.7946 52.6027 30.6295 52.5357 30.4688 52.4688ZM43.5312 52.4688C43.3661 52.5357 43.2054 52.6027 43.0402 52.6652C44.0848 51.2679 44.9821 49.5223 45.683 47.5134C46.6205 48.0491 47.5089 48.6741 48.3348 49.3795C46.923 50.6776 45.2981 51.7227 43.5312 52.4688Z" fill="white"/>
</g>
<defs>
<clipPath id="clip0_4102_7493">
<rect width="40" height="40" fill="white" transform="translate(17 17)"/>
</clipPath>
</defs>
</svg>
