<svg width="18" height="18" viewBox="0 0 18 18" fill="none" xmlns="http://www.w3.org/2000/svg">
<g opacity="0.65">
<circle cx="13.2947" cy="4.90912" r="0.818182" fill="white" stroke="white" stroke-width="1.02273"/>
<path d="M1.98438 4.90891C1.98438 3.40646 3.20236 2.18848 4.70481 2.18848H13.2959C14.7984 2.18848 16.0164 3.40646 16.0164 4.90891V4.90891C16.0164 6.41137 14.7984 7.62935 13.2959 7.62935H4.70481C3.20235 7.62935 1.98438 6.41137 1.98438 4.90891V4.90891Z" stroke="white" stroke-width="1.47273"/>
<circle cx="0.818182" cy="0.818182" r="0.818182" transform="matrix(-1 0 0 1 5.52344 12.2726)" fill="white" stroke="white" stroke-width="1.02273"/>
<path d="M16.0156 13.0907C16.0156 11.5882 14.7976 10.3702 13.2952 10.3702H4.70408C3.20163 10.3702 1.98365 11.5882 1.98365 13.0907V13.0907C1.98365 14.5931 3.20163 15.8111 4.70408 15.8111H13.2952C14.7976 15.8111 16.0156 14.5931 16.0156 13.0907V13.0907Z" stroke="white" stroke-width="1.47273"/>
</g>
</svg>
